<?xml version="1.0" encoding="iso-8859-1"?>
<!-- Generator: Adobe Illustrator 19.1.0, SVG Export Plug-In . SVG Version: 6.00 Build 0)  -->
<svg version="1.1" id="Capa_1" xmlns="http://www.w3.org/2000/svg" xmlns:xlink="http://www.w3.org/1999/xlink" x="0" y="0"
	 viewBox="0 0 513.32 513.32" style="enable-background:new 0 0 513.32 513.32;" xml:space="preserve">
		<g>
			<path fill='#646585' d="M342.213,363.602c23.527,0,42.777-19.249,42.777-42.777c0-23.527-19.249-42.777-42.777-42.777
				s-42.777,19.249-42.777,42.777C299.437,344.352,318.686,363.602,342.213,363.602z"/>
			<path fill='#646585' d="M85.553,149.718c-23.527,0-42.777-19.249-42.777-42.777s19.249-42.777,42.777-42.777h342.213v42.777h42.777V21.388
				H85.553C38.499,21.388,0,59.887,0,106.942V384.99c0,59.887,47.055,106.942,106.942,106.942H513.32V149.718H85.553z
				 M470.543,449.155H106.942c-36.36,0-64.165-27.805-64.165-64.165V179.662c12.833,8.555,27.805,12.833,42.777,12.833h384.99
				v256.66H470.543z"/>
		</g>
</svg>
