<svg version="1.1" viewBox="0 0 146 187">
<path d="M110.63,28.6c-8.79-4.04-19.15-4.09-34.17-0.14c-0.08,0-0.13,0.03-0.24,0.05L68.67,0.21L53.43,4.25l7.59,28.37
	c-4.55,1.25-9.55,2.63-14.47,4.04l-7.59-28.6L23.72,12.1l7.52,28.67c-5.33,1.63-31.26,8.09-31.26,8.09l4.13,16.67l19.81-4.81
	l22.15,83.43l-19.6,4.77l4.29,16.97c0,0,25.93-6.11,31.84-7.37l7.57,28.84l15.23-4.04l-7.53-28.4c5.11-1.13,10.2-2.56,14.68-3.58
	l7.34,28.27l15.23-4.04l-7.33-27.83c16.69-4.87,27.58-11.5,33.26-20.42c4.36-7.29,6.3-16,3.63-26.11
	c-4.58-17.42-19.95-23.26-31.73-23.12l-0.07-0.34c11.03-7.78,15.83-19.65,12.86-30.97C123.33,37.53,117.85,31.51,110.63,28.6z
	 M104.78,110.06c2.67,10.18-3.71,19.86-17.98,23.64l-12.22,3.2l-8.96-33.92c2.06-1.04,5.5-2.45,11.69-4.1
	C90.94,95.31,101.52,97.73,104.78,110.06z M92.75,60.58c1.51,5.74,0.14,11.29-3.88,15.68c-3.09,3.51-7.83,6.31-14.07,7.94l-0.1,0.02
	l-12.14,3.2l-8.93-33.93c2.03-1.03,5.47-2.43,11.66-4.08c0.06-0.03,0.1-0.02,0.16-0.05c6.13-1.57,11.6-1.95,16.09-0.77
	C87.03,50.03,90.99,53.83,92.75,60.58z"/>
</svg>
