<?xml version="1.0" encoding="utf-8"?>
<!-- Generator: Adobe Illustrator 21.1.0, SVG Export Plug-In . SVG Version: 6.00 Build 0)  -->
<svg version="1.1" id="Layer_1" xmlns="http://www.w3.org/2000/svg" xmlns:xlink="http://www.w3.org/1999/xlink" x="0px" y="0px"
	 viewBox="0 0 2060.502 1696.115" style="enable-background:new 0 0 2060.502 1696.115;" xml:space="preserve">
<g>
	<path d="M182.754,847.489c0-244.815,0.032-489.63-0.053-734.445c-0.008-22.516,6.437-42.906,18.952-61.348
		c18.352-27.043,43.538-44.005,75.924-49.698c5.958-1.047,12.047-1.922,18.075-1.923c490.13-0.088,980.26-0.13,1470.39,0.051
		c27.041,0.01,50.942,9.828,71.795,27.333c20.23,16.983,32.507,38.583,38.497,63.931c1.573,6.656,2.324,13.664,2.325,20.51
		c0.105,490.463,0.124,980.927,0.015,1471.39c-0.006,25.509-8.631,48.438-24.31,68.517c-16.718,21.409-38.438,35.397-64.866,41.725
		c-6.172,1.478-12.649,2.363-18.986,2.364c-490.963,0.107-981.927,0.059-1472.89,0.218c-23.623,0.008-44.94-6.339-64.283-19.335
		c-26.872-18.054-42.766-43.638-49.454-75.071c-0.951-4.47-1.085-9.178-1.086-13.775
		C182.748,1341.119,182.754,1094.304,182.754,847.489z M652.569,1175.709c-168.187-196.49-156.057-472.015-1.448-650.735
		c-18.482-18.47-36.93-36.906-55.729-55.693c-89.19,104.087-137.409,224.682-142.216,362.106
		c-3.114,89.016,14.079,174.383,50.724,255.562c23.82,52.769,54.913,101.007,93.34,144.029
		C615.821,1212.416,634.066,1194.191,652.569,1175.709z M706.964,468.607c94.512-77.748,202.507-119.167,325.79-118.58
		c123.179,0.587,230.82,42.745,324.533,121.47c18.39-18.357,36.784-36.718,55.657-55.556
		c-131.39-111.649-282.668-159.537-454.046-139.655c-116.414,13.505-218.56,60.921-307.223,136.98
		C670.357,431.965,688.582,450.207,706.964,468.607z M1411.174,1283.898c-18.158-18.157-35.613-35.581-53.016-53.056
		c-1.779-1.786-3.078-2.483-5.393-0.512c-6.867,5.846-13.855,11.562-20.994,17.074c-20.859,16.104-43.022,30.248-66.313,42.523
		c-13.006,6.854-26.414,12.981-39.829,19.015c-21.434,9.64-43.679,17.049-66.393,23.045c-22.762,6.009-45.736,10.906-69.23,13.045
		c-14.24,1.297-28.455,3.25-42.723,3.763c-13.739,0.494-27.544-0.214-41.295-0.901c-12.156-0.607-24.331-1.484-36.399-3.02
		c-15.07-1.917-30.221-3.82-45.015-7.157c-39.386-8.886-77.564-21.639-113.652-39.874c-17.76-8.974-35.249-18.711-51.925-29.542
		c-16.287-10.578-31.509-22.828-46.899-34.73c-3.175-2.455-4.644-2.989-7.613,0.03c-16.357,16.635-32.931,33.058-49.415,49.569
		c-0.895,0.897-1.647,1.936-2.579,3.043c109.778,92.685,236.026,140.89,379.452,140.521
		C1175.588,1426.364,1301.72,1377.49,1411.174,1283.898z M1412.133,526.999c77.09,94.169,117.906,201.309,117.622,323.505
		c-0.284,122.119-41.61,229.057-118.238,321.843c18.444,18.443,36.762,36.762,55.651,55.65
		c112.741-135.227,159.074-290.425,134.269-465.418c-15.589-109.976-61.665-206.81-134.005-290.882
		C1448.534,490.595,1430.3,508.831,1412.133,526.999z M799.358,672.768c-18.634-18.665-36.973-37.035-55.303-55.395
		c-98.73,114.865-121.503,317.776,1.681,466.281c9.18-9.218,18.336-18.434,27.517-27.625c9.263-9.274,18.552-18.523,27.77-27.725
		C717.955,920.536,720.384,775.425,799.358,672.768z M799.015,561.789c18.296,18.292,35.896,35.789,53.332,53.448
		c2.148,2.176,3.701,1.509,5.457,0.18c19.928-15.078,41.653-26.953,64.76-36.352c32.454-13.2,66.312-19.808,101.237-20.958
		c8.745-0.288,17.537,0.423,26.29,0.952c7.876,0.476,15.821,0.798,23.574,2.128c19.435,3.332,38.597,7.872,57.102,14.874
		c18.368,6.95,36.129,15.134,52.604,25.9c8.807,5.755,17.467,11.737,25.745,17.314c18.454-18.447,36.799-36.786,55.562-55.543
		c-82.41-65.524-176.034-93.047-280.745-80.567C915.12,491.367,853.712,518.152,799.015,561.789z M800.742,1138.069
		c139.051,111.16,334.043,103.502,461.561-1.808c-18.504-18.511-37.037-37.052-55.588-55.609
		c-33.333,29.633-96.741,55.053-155.216,59.058c-71.865,4.922-137.342-14.401-195.038-57.352
		C837.746,1101.069,819.37,1119.443,800.742,1138.069z M1263.609,675.25c38.348,51.784,58.1,110.229,58.014,174.927
		c-0.086,64.766-20.751,122.909-58.413,173.883c18.731,18.728,37.054,37.047,55.646,55.635
		c50.541-63.371,77.94-136.296,80.6-217.611c2.955-90.325-24.142-171.542-80.074-242.623
		C1301.023,637.825,1282.651,656.202,1263.609,675.25z M976.913,851.188c-22.71-22.706-45.705-45.696-68.601-68.588
		c-23.908,39.939-22.048,99.613,1.504,135.656C932.286,895.795,954.834,873.256,976.913,851.188z M1099.599,728.494
		c-39.461-24.888-100.285-24.008-134.584-1.366c22.797,22.78,45.623,45.589,68.001,67.951
		C1054.969,773.126,1077.171,750.923,1099.599,728.494z M1032.425,906.556c-21.929,21.918-44.075,44.053-66.177,66.144
		c34.641,20.268,91.729,22.615,131.01-1.394C1075.694,949.77,1054.055,928.159,1032.425,906.556z M1154.16,785.554
		c-21.82,21.822-43.717,43.722-64.828,64.835c21.093,21.102,42.581,42.6,64.041,64.069
		C1174.501,890.476,1174.998,817.47,1154.16,785.554z M329.079,1589.015c23.553,1.024,41.483-18.5,41.658-40.346
		c0.193-24.004-18.031-40.613-38.804-41.821c-26.37-1.534-44.147,19.219-44.202,40.972
		C287.674,1570.523,306.025,1589.925,329.079,1589.015z M329.384,188.015c23.209,0.891,41.267-18.465,41.366-40.648
		c0.103-23.285-17.969-40.306-38.62-41.522c-26.67-1.57-44.23,19.242-44.398,40.779
		C287.553,169.432,306.058,189.091,329.384,188.015z M1729.403,1506.974c-23.934-0.862-41.628,18.418-41.542,40.869
		c0.09,23.221,17.643,40.104,38.766,41.277c26.464,1.469,44.108-18.963,44.128-40.994
		C1770.778,1524.581,1752.238,1506.252,1729.403,1506.974z M1729.145,188.015c23.565,0.857,41.381-18.149,41.583-40.403
		c0.217-23.938-18.014-40.621-38.843-41.755c-25.877-1.409-43.919,18.393-44.062,41.033
		C1687.679,169.564,1705.856,188.87,1729.145,188.015z"/>
	<path d="M106.42,1306.753c-35.647,0-70.911,0-106.42,0c0-305.817,0-611.393,0-917.364c35.319,0,70.702,0,106.42,0
		C106.42,694.995,106.42,1000.688,106.42,1306.753z"/>
	<path d="M1955.094,389.231c35.296,0,70.227,0,105.408,0c0,305.812,0,611.387,0,917.363c-34.968,0-70.017,0-105.408,0
		C1955.094,1001.006,1955.094,695.312,1955.094,389.231z"/>
	<path style="fill:#FFFFFF;" d="M652.569,1175.709c-18.503,18.483-36.748,36.708-55.329,55.269
		c-38.427-43.022-69.52-91.26-93.34-144.029c-36.644-81.179-53.837-166.546-50.724-255.562
		c4.807-137.424,53.026-258.019,142.216-362.106c18.8,18.787,37.248,37.224,55.729,55.693
		C496.512,703.693,484.383,979.219,652.569,1175.709z"/>
	<path style="fill:#FFFFFF;" d="M706.964,468.607c-18.382-18.4-36.607-36.642-55.289-55.342
		c88.662-76.059,190.808-123.475,307.223-136.98c171.378-19.881,322.656,28.007,454.046,139.655
		c-18.872,18.838-37.266,37.199-55.657,55.556c-93.713-78.725-201.355-120.883-324.533-121.47
		C909.471,349.44,801.476,390.859,706.964,468.607z"/>
	<path style="fill:#FFFFFF;" d="M1411.174,1283.898c-109.454,93.591-235.586,142.466-379.231,142.835
		c-143.425,0.369-269.673-47.836-379.452-140.521c0.931-1.107,1.684-2.146,2.579-3.043c16.484-16.511,33.058-32.933,49.415-49.569
		c2.969-3.019,4.438-2.485,7.613-0.03c15.391,11.902,30.612,24.151,46.899,34.73c16.676,10.831,34.164,20.568,51.925,29.542
		c36.088,18.235,74.266,30.988,113.652,39.874c14.794,3.338,29.945,5.24,45.015,7.157c12.068,1.535,24.243,2.413,36.399,3.02
		c13.751,0.687,27.556,1.394,41.295,0.901c14.268-0.513,28.483-2.466,42.723-3.763c23.494-2.14,46.468-7.036,69.23-13.045
		c22.714-5.997,44.959-13.405,66.393-23.045c13.416-6.034,26.823-12.161,39.829-19.015c23.291-12.275,45.454-26.418,66.313-42.523
		c7.139-5.511,14.127-11.228,20.994-17.074c2.315-1.971,3.614-1.274,5.393,0.512
		C1375.561,1248.317,1393.016,1265.741,1411.174,1283.898z"/>
	<path style="fill:#FFFFFF;" d="M1412.133,526.999c18.167-18.168,36.401-36.404,55.298-55.302
		c72.341,84.072,118.416,180.906,134.005,290.882c24.805,174.993-21.528,330.19-134.269,465.418
		c-18.888-18.888-37.207-37.207-55.651-55.65c76.628-92.786,117.954-199.724,118.238-321.843
		C1530.039,728.308,1489.223,621.168,1412.133,526.999z"/>
	<path style="fill:#FFFFFF;" d="M799.358,672.768c-78.974,102.657-81.403,247.768,1.666,355.536
		c-9.219,9.202-18.507,18.451-27.77,27.725c-9.181,9.191-18.337,18.407-27.517,27.625
		c-123.185-148.505-100.411-351.416-1.681-466.281C762.385,635.734,780.724,654.103,799.358,672.768z"/>
	<path style="fill:#FFFFFF;" d="M799.015,561.789c54.697-43.637,116.105-70.422,184.919-78.623
		c104.711-12.48,198.335,15.043,280.745,80.567c-18.763,18.757-37.108,37.096-55.562,55.543
		c-8.278-5.578-16.938-11.559-25.745-17.314c-16.474-10.766-34.236-18.95-52.604-25.9c-18.505-7.002-37.667-11.542-57.102-14.874
		c-7.753-1.329-15.698-1.651-23.574-2.128c-8.753-0.529-17.545-1.24-26.29-0.952c-34.925,1.15-68.783,7.758-101.237,20.958
		c-23.107,9.398-44.832,21.273-64.76,36.352c-1.756,1.329-3.309,1.996-5.457-0.18C834.911,597.578,817.311,580.081,799.015,561.789z
		"/>
	<path style="fill:#FFFFFF;" d="M800.742,1138.069c18.628-18.625,37.004-36.999,55.719-55.712
		c57.695,42.952,123.172,62.274,195.038,57.352c58.475-4.005,121.884-29.425,155.216-59.058
		c18.551,18.558,37.084,37.098,55.588,55.609C1134.786,1241.571,939.793,1249.228,800.742,1138.069z"/>
	<path style="fill:#FFFFFF;" d="M1263.609,675.25c19.042-19.047,37.414-37.425,55.772-55.789
		c55.932,71.081,83.029,152.298,80.074,242.623c-2.66,81.315-30.059,154.24-80.6,217.611
		c-18.591-18.588-36.914-36.907-55.646-55.635c37.661-50.975,58.326-109.117,58.413-173.883
		C1321.71,785.479,1301.958,727.034,1263.609,675.25z"/>
	<path style="fill:#FFFFFF;" d="M976.913,851.188c-22.078,22.069-44.627,44.608-67.097,67.068
		c-23.552-36.043-25.412-95.717-1.504-135.656C931.208,805.492,954.203,828.482,976.913,851.188z"/>
	<path style="fill:#FFFFFF;" d="M1099.599,728.494c-22.428,22.429-44.629,44.631-66.582,66.585
		c-22.379-22.362-45.205-45.172-68.001-67.951C999.313,704.486,1060.138,703.606,1099.599,728.494z"/>
	<path style="fill:#FFFFFF;" d="M1032.425,906.556c21.631,21.603,43.27,43.214,64.833,64.75
		c-39.281,24.009-96.369,21.662-131.01,1.394C988.35,950.609,1010.495,928.475,1032.425,906.556z"/>
	<path style="fill:#FFFFFF;" d="M1154.16,785.554c20.838,31.917,20.341,104.923-0.787,128.904
		c-21.46-21.469-42.948-42.967-64.041-64.069C1110.443,829.275,1132.34,807.376,1154.16,785.554z"/>
	<path style="fill:#FFFFFF;" d="M329.079,1589.015c-23.054,0.911-41.405-18.492-41.348-41.195
		c0.055-21.752,17.832-42.506,44.202-40.972c20.773,1.209,38.997,17.818,38.804,41.821
		C370.562,1570.515,352.633,1590.038,329.079,1589.015z"/>
	<path style="fill:#FFFFFF;" d="M329.384,188.015c-23.326,1.076-41.83-18.583-41.652-41.391
		c0.168-21.537,17.728-42.349,44.398-40.779c20.651,1.216,38.723,18.236,38.62,41.522
		C370.651,169.55,352.593,188.905,329.384,188.015z"/>
	<path style="fill:#FFFFFF;" d="M1729.403,1506.974c22.835-0.722,41.375,17.607,41.353,41.152
		c-0.021,22.031-17.665,42.463-44.128,40.994c-21.124-1.173-38.677-18.056-38.766-41.277
		C1687.774,1525.393,1705.468,1506.112,1729.403,1506.974z"/>
	<path style="fill:#FFFFFF;" d="M1729.145,188.015c-23.288,0.855-41.465-18.451-41.322-41.126
		c0.143-22.64,18.184-42.442,44.062-41.033c20.829,1.134,39.06,17.817,38.843,41.755
		C1770.526,169.865,1752.709,188.871,1729.145,188.015z"/>
</g>
</svg>
