<?xml version="1.0" encoding="utf-8"?>
<!-- Generator: Adobe Illustrator 22.1.0, SVG Export Plug-In . SVG Version: 6.00 Build 0)  -->
<svg version="1.1" id="Capa_1" xmlns="http://www.w3.org/2000/svg" xmlns:xlink="http://www.w3.org/1999/xlink" x="0px" y="0px"
	 viewBox="0 0 512 512" style="enable-background:new 0 0 512 512;" xml:space="preserve">
<style type="text/css">
	.st0{display:none;}
	.st1{display:inline;}
	.st2{fill:#9db1cc;}
</style>
<g class="st0">
	<g class="st1">
		<path d="M501.9,267.1c-11.3-38.2-31.9-73.3-59.6-101.8l8.2-8.2c5.8-5.8,5.8-15.1,0-20.9l-74.6-74.6c-5.8-5.8-15.1-5.8-20.9,0
			l-8.2,8.2C318.2,42,283.1,21.5,244.9,10.1C205.6-1.5,163.7-3.2,123.6,5.4c-6.8,1.4-11.6,7.4-11.7,14.3c-0.1,6.9,4.6,13,11.4,14.5
			l14.5,3.4c39.1,9.3,74.9,29.3,103.3,57.7l40.1,40.1l-4.5,4.5c-5.8,5.8-5.8,15.1,0,20.9l74.6,74.6c5.8,5.8,15.1,5.8,20.9,0l4.5-4.5
			l40.1,40.1c28.4,28.4,48.4,64.2,57.7,103.3l3.4,14.5c1.6,6.7,7.5,11.4,14.4,11.4c0.1,0,0.1,0,0.2,0c6.9-0.1,12.8-4.9,14.3-11.7
			C515.2,348.3,513.5,306.4,501.9,267.1z"/>
	</g>
</g>
<g class="st0">
	<g class="st1">
		<path d="M413.6,380.3c0-23.4-19-42.5-42.5-42.5h-1.8v-18.5c0-8.2-6.6-14.8-14.8-14.8c-8.2,0-14.8,6.6-14.8,14.8v18.5h-29.5
			c-8.2,0-14.8,6.6-14.8,14.8v110.8c0,8.2,6.6,14.8,14.8,14.8h29.5v18.5c0,8.2,6.6,14.8,14.8,14.8c8.2,0,14.8-6.6,14.8-14.8v-18.5
			h1.8c23.4,0,42.5-19,42.5-42.5c0-10.6-3.9-20.3-10.3-27.7C409.7,400.6,413.6,390.9,413.6,380.3z M371.1,448.6h-46.2v-25.8h46.2
			c7.1,0,12.9,5.8,12.9,12.9C384,442.8,378.2,448.6,371.1,448.6z M371.1,393.2h-46.2v-25.8h46.2c7.1,0,12.9,5.8,12.9,12.9
			C384,387.4,378.2,393.2,371.1,393.2z"/>
	</g>
</g>
<g class="st0">
	<g class="st1">
		<path d="M260.2,186.1L4.3,442c-5.8,5.8-5.8,15.1,0,20.9l44.8,44.8c2.9,2.9,6.7,4.3,10.4,4.3s7.6-1.4,10.4-4.3l255.9-255.9
			L260.2,186.1z"/>
	</g>
</g>
<g>
	<path class="st2" d="M427.6,191.3c-33.5-53.7-91.6-90.6-158.5-94.9V58.6c10.2-4.9,17.1-15.3,17.1-27.4c0-16.8-13.5-30.3-30.3-30.3
		c-16.8,0-30.3,13.5-30.3,30.3c0,12,7.1,22.4,17.1,27.4v37.7c-66.9,4.3-125.1,41.2-158.5,94.9c-34.8,23.1-57.7,62.3-57.7,106.8
		c0,41.7,20.3,78.9,51.6,102.3c29.5,59.2-31.8,110.4-31.8,110.4s73,4.3,127.6-22.2c25.1,11,52.9,17.3,82.1,17.3
		c70.5,0,132.7-36.1,168.9-90.6c0,0,0,0,0-0.2c2.6-4,5.1-8.1,7.4-12.2c0-0.2,0.2-0.2,0.2-0.3c0.3-0.5,0.7-1.2,1-1.6
		c31.6-23.4,52.2-61,52.2-102.8C485.4,253.6,462.3,214.3,427.6,191.3z M355.9,400.1H155.8c-56.9,0-103.2-45.8-103.2-102.2
		s46.3-102.2,103.2-102.2H356c56.9,0,103.2,45.8,103.2,102.2C459,354.3,412.7,400.1,355.9,400.1z"/>
	<path class="st2" d="M189.1,297.9c0,15-12.2,27.4-27.4,27.4c-15,0-27.4-12.2-27.4-27.4c0-15,12.2-27.4,27.4-27.4
		C176.7,270.7,189.1,282.9,189.1,297.9z"/>
	<path class="st2" d="M379.1,297.9c0,15-12.2,27.4-27.4,27.4c-15,0-27.4-12.2-27.4-27.4c0-15,12.2-27.4,27.4-27.4
		C366.9,270.7,379.1,282.9,379.1,297.9z"/>
</g>
</svg>
