<?xml version="1.0" encoding="utf-8"?>
<!-- Generator: Adobe Illustrator 21.1.0, SVG Export Plug-In . SVG Version: 6.00 Build 0)  -->
<svg version="1.1" id="Layer_1" xmlns="http://www.w3.org/2000/svg" xmlns:xlink="http://www.w3.org/1999/xlink" x="0px" y="0px"
	 viewBox="0 0 381 152.8" style="enable-background:new 0 0 381 152.8;" xml:space="preserve">
<style type="text/css">
	.st0{fill:none;stroke:#4B4C66;stroke-width:6;stroke-miterlimit:10;}
	.st1{font-family:'DINPro-Black';}
	.st2{font-size:200px;}
	.st3{fill:#F9CF43;}
</style>
<g>
	<text transform="matrix(1 0 0 1 23.7426 147.8884)" class="st0 st1 st2">4</text>
</g>
<g>
	<text transform="matrix(1 0 0 1 130.6736 147.8884)" class="st0 st1 st2">0</text>
</g>
<text transform="matrix(1 0 0 -1 237.1584 5.3145)" class="st0 st1 st2">4</text>
<path class="st3" d="M369.3,131.9c-4.4,0-8,3.6-8,8s3.6,8,8,8c4.4,0,8-3.6,8-8S373.7,131.9,369.3,131.9z M369.3,142.6
	c-1.5,0-2.7-1.2-2.7-2.7s1.2-2.7,2.7-2.7c1.5,0,2.7,1.2,2.7,2.7S370.7,142.6,369.3,142.6z"/>
<path class="st3" d="M366.6,91.9h5.3v5.3h-5.3V91.9z"/>
<path class="st3" d="M366.6,105.2h5.3v5.3h-5.3V105.2z"/>
<path class="st3" d="M366.6,118.6h5.3v5.3h-5.3V118.6z"/>
<path class="st3" d="M18.7,9.2c0-4.4-3.6-8-8-8s-8,3.6-8,8s3.6,8,8,8S18.7,13.6,18.7,9.2z M13.3,9.2c0,1.5-1.2,2.7-2.7,2.7
	S8,10.7,8,9.2s1.2-2.7,2.7-2.7S13.3,7.8,13.3,9.2z"/>
<path class="st3" d="M8,51.9h5.3v5.3H8V51.9z"/>
<path class="st3" d="M8,38.6h5.3v5.3H8V38.6z"/>
<path class="st3" d="M8,25.2h5.3v5.3H8V25.2z"/>
</svg>
