<?xml version="1.0" encoding="utf-8"?>
<!-- Generator: Adobe Illustrator 23.0.0, SVG Export Plug-In . SVG Version: 6.00 Build 0)  -->
<svg version="1.1" id="Слой_1" xmlns="http://www.w3.org/2000/svg" xmlns:xlink="http://www.w3.org/1999/xlink" x="0px" y="0px"
	 viewBox="0 0 966.7 966.7" style="enable-background:new 0 0 966.7 966.7;" xml:space="preserve">
 <style type="text/css">
 	.st0{fill:#9db1cc;}
 </style>
<g>
	<path class="st0" d="M253.6,526.7l23.4-43.1c12.8-23.7,25.7-45,28.3-47.5c7.1-5.9,16.7-5.5,23.7,1c3.3,3.1,16.1,20.7,28.7,39.6
		c13,19.3,23.6,33.1,23.9,31.6c0.6-1.5,14.8-56.5,31.6-122.4c27.4-107,31.2-120.1,35.6-124.1c7.7-6.5,17-5.7,24.7,1.9
		c5.9,6.3,6.3,7.8,41.2,179.2c21.8,106.5,36,171.8,37,170.1c0.8-1.5,12.8-35.8,26.6-76c31.6-92.5,31.8-93.1,36.8-96.5
		c4.8-3.3,15.1-3.8,20.5-1c2.1,1.2,16.8,21.5,32.9,45l29.1,43.1h100.1h166.9c1.3-14.6,2-29.4,2-44.3C966.7,216.4,750.3,0,483.4,0
		S0,216.4,0,483.4c0,14.9,0.7,29.7,2,44.3l152.4-0.3L253.6,526.7z"/>
	<path class="st0" d="M675.9,561.2c-2.3-2.1-12.8-16.5-23.4-32c-10.5-15.5-19.9-28-20.7-27.4c-0.8,0.4-16.7,45.8-35.4,100.7
		c-32.2,93.8-34.5,100.1-40,103.4c-12.8,7.9-25.9,1.2-29.7-15.1c-1.2-5-16.8-80.4-34.7-167.8c-18-87.3-32.7-158.9-33.1-159.3
		c-0.2-0.2-12.1,45-26.2,100.3c-22.6,88.7-26.4,101.5-30.8,106.1c-6.1,6.3-17.6,7.3-23.9,1.9c-2.3-1.7-15.9-20.9-30.5-42.5
		c-14.5-21.6-27-40-27.8-40.8c-0.8-0.8-9.6,14-19.7,32.7c-10.3,18.8-20.9,36.4-23.5,38.9l-5,4.6l-95.5,0.6L7.1,566.1
		c39.3,227.5,237.6,400.6,476.3,400.6c238.7,0,437-173.1,476.3-400.6l-183.1-0.6C683.1,565,679.9,564.8,675.9,561.2z"/>
</g>
</svg>
